<svg xmlns="http://www.w3.org/2000/svg" xml:space="preserve" width="800" height="800" viewBox="0 0 166.418 166.418"><path d="M83.209 166.418c-7.121 0-13.11-4.387-15.258-11.176l-3.572-11.285c-5.089-16.083-13.75-31.047-25.742-44.478a59.588 59.588 0 0 1-15.156-40.078c.086-15.993 6.312-30.945 17.53-42.102C52.229 6.144 67.215 0 83.209 0c32.934 0 59.728 26.794 59.728 59.729 0 15.138-5.676 29.576-15.982 40.657-11.19 12.03-19.574 26.691-24.917 43.575l-3.57 11.281c-2.149 6.789-8.138 11.176-15.259 11.176zM83.209 5C52.685 5 28.645 28.908 28.481 59.429A54.597 54.597 0 0 0 42.367 96.15c12.465 13.961 21.475 29.538 26.779 46.3l3.572 11.285c1.793 5.665 6.595 7.684 10.492 7.684 3.896 0 8.698-2.019 10.491-7.684l3.57-11.281c5.568-17.597 14.324-32.896 26.023-45.474 9.443-10.151 14.644-23.381 14.644-37.251C137.937 29.551 113.387 5 83.209 5zm0 86.996c-18.188 0-32.984-14.797-32.984-32.984 0-18.188 14.797-32.985 32.984-32.985 18.188 0 32.985 14.797 32.985 32.985 0 18.187-14.797 32.984-32.985 32.984zm0-60.97c-15.431 0-27.984 12.554-27.984 27.985s12.554 27.984 27.984 27.984c15.431 0 27.985-12.554 27.985-27.984 0-15.431-12.554-27.985-27.985-27.985z" style="fill:#000002"/></svg>